<svg width="14" height="14" viewBox="0 0 14 14" fill="none" xmlns="http://www.w3.org/2000/svg">
<path d="M6.33398 11.0007H7.66732V9.66732H6.33398V11.0007ZM7.00065 0.333984C3.32065 0.333984 0.333984 3.32065 0.333984 7.00065C0.333984 10.6807 3.32065 13.6673 7.00065 13.6673C10.6807 13.6673 13.6673 10.6807 13.6673 7.00065C13.6673 3.32065 10.6807 0.333984 7.00065 0.333984ZM7.00065 12.334C4.06065 12.334 1.66732 9.94065 1.66732 7.00065C1.66732 4.06065 4.06065 1.66732 7.00065 1.66732C9.94065 1.66732 12.334 4.06065 12.334 7.00065C12.334 9.94065 9.94065 12.334 7.00065 12.334ZM7.00065 3.00065C5.52732 3.00065 4.33398 4.19398 4.33398 5.66732H5.66732C5.66732 4.93398 6.26732 4.33398 7.00065 4.33398C7.73398 4.33398 8.33398 4.93398 8.33398 5.66732C8.33398 7.00065 6.33398 6.83398 6.33398 9.00065H7.66732C7.66732 7.50065 9.66732 7.33398 9.66732 5.66732C9.66732 4.19398 8.47398 3.00065 7.00065 3.00065Z" fill="#E7FC6E"/>
</svg>
