<svg width="32" height="32" viewBox="0 0 32 32" fill="none" xmlns="http://www.w3.org/2000/svg">
<path d="M16 32C24.8366 32 32 24.8366 32 16C32 7.16344 24.8366 0 16 0C7.16344 0 0 7.16344 0 16C0 24.8366 7.16344 32 16 32Z" fill="white"/>
<path fill-rule="evenodd" clip-rule="evenodd" d="M22.3414 8L25.3335 10.9962L20.2017 16.1352L17.5668 13.4966L14.93 16.1371L12.2939 13.4973L9.65877 16.1361L6.66675 13.1399L11.7985 8.00089L14.4347 10.6407L17.0698 8.0019L19.7047 10.6405L22.3414 8ZM11.7989 15.9174L14.435 18.5573L17.0701 15.9185L19.705 18.5571L22.3401 15.9183L25.3321 18.9145L20.2003 24.0535L17.5654 21.4149L14.9303 24.0537L12.2942 21.4139L9.6591 24.0526L6.66708 21.0564L11.7989 15.9174Z" fill="#4D4AEC"/>
</svg>
